0
SECTION
2
HEADER
9
$INSUNITS
70
4
9
$ACADVER
1
AC1014
9
$HANDSEED
5
FFFF
0
ENDSEC
0
SECTION
2
TABLES
0
TABLE
2
VPORT
5
8
100
AcDbSymbolTable
0
ENDTAB
0
TABLE
2
LTYPE
5
5
100
AcDbSymbolTable
0
LTYPE
5
14
100
AcDbSymbolTableRecord
100
AcDbLinetypeTableRecord
2
BYBLOCK
70
0
0
LTYPE
5
15
100
AcDbSymbolTableRecord
100
AcDbLinetypeTableRecord
2
BYLAYER
70
0
0
ENDTAB
0
TABLE
2
LAYER
5
2
100
AcDbSymbolTable
70
2
0
LAYER
5
50
100
AcDbSymbolTableRecord
100
AcDbLayerTableRecord
2
0
70
0
6
CONTINUOUS
0
ENDTAB
0
TABLE
2
STYLE
5
3
100
AcDbSymbolTable
70
1
0
STYLE
5
11
100
AcDbSymbolTableRecord
100
AcDbTextStyleTableRecord
2
STANDARD
70
0
0
ENDTAB
0
TABLE
2
VIEW
5
6
100
AcDbSymbolTable
70
0
0
ENDTAB
0
TABLE
2
UCS
5
7
100
AcDbSymbolTable
70
0
0
ENDTAB
0
TABLE
2
APPID
5
9
100
AcDbSymbolTable
70
2
0
APPID
5
12
100
AcDbSymbolTableRecord
100
AcDbRegAppTableRecord
2
ACAD
70
0
0
ENDTAB
0
TABLE
2
DIMSTYLE
5
A
100
AcDbSymbolTable
70
1
0
ENDTAB
0
TABLE
2
BLOCK_RECORD
5
1
100
AcDbSymbolTable
70
1
0
BLOCK_RECORD
5
1F
100
AcDbSymbolTableRecord
100
AcDbBlockTableRecord
2
*MODEL_SPACE
0
BLOCK_RECORD
5
1B
100
AcDbSymbolTableRecord
100
AcDbBlockTableRecord
2
*PAPER_SPACE
0
ENDTAB
0
ENDSEC
0
SECTION
2
BLOCKS
0
BLOCK
5
20
100
AcDbEntity
100
AcDbBlockBegin
2
*MODEL_SPACE
0
ENDBLK
5
21
100
AcDbEntity
100
AcDbBlockEnd
0
BLOCK
5
1C
100
AcDbEntity
100
AcDbBlockBegin
2
*PAPER_SPACE
0
ENDBLK
5
1D
100
AcDbEntity
100
AcDbBlockEnd
0
ENDSEC
0
SECTION
2
ENTITIES
0
CIRCLE
5
100
100
AcDbEntity
8
0
100
AcDbCircle
10
4.4408920985006301e-15
20
4.92238090426296
30
0
40
1.6499999999999999
210
0
220
0
230
1
0
LWPOLYLINE
5
101
100
AcDbEntity
8
0
100
AcDbPolyline
90
6
70
1
43
0.0
10
-8.7706943630637006
20
2.8497816300254697
42
1.1209320722103302
10
-11.255165158203312
20
-18.865973353553546
10
10.744834841796692
20
-18.865973353553549
42
1.1296820235412166
10
8.0951777711922297
20
2.810136303442107
10
0.96351166203799199
20
1.0401592108099953
42
-0.11832184473095601
10
-0.90344392550530839
20
1.0257427284160463
0
CIRCLE
5
102
100
AcDbEntity
8
0
100
AcDbCircle
10
0
20
-28.357157811043905
30
0
40
1.6500000000000008
210
0
220
0
230
1
0
SPLINE
5
103
100
AcDbEntity
8
0
100
AcDbSpline
70
0
71
3
72
11
73
7
74
0
42
0.000000001
43
0.0000000001
44
0.0000000001
40
0.00018736060542366009
40
0.00018736060542366009
40
0.00018736060542366009
40
0.00018736060542366009
40
0.79940999222234144
40
0.79940999222234144
40
0.79940999222234144
40
1.5984650272737198
40
1.5984650272737198
40
1.5984650272737198
40
1.5984650272737198
10
-8.0559020321758386
20
-39.198726921657745
30
0
10
-5.4112692596499556
20
-39.456674078598233
30
0
10
-2.7490649888365555
20
-39.578274123872092
30
0
10
-0.091788328993227974
20
-39.564648207665755
30
0
10
2.5649311013319904
20
-39.551025148806886
30
0
10
5.2252204556691559
20
-39.402189255299803
30
0
10
7.8665089597278648
20
-39.117082638653507
30
0
0
SPLINE
5
104
100
AcDbEntity
8
0
100
AcDbSpline
70
0
71
3
72
122
73
118
74
0
42
0.000000001
43
0.0000000001
44
0.0000000001
40
-948.34286135149932
40
-948.34286135149932
40
-948.34286135149932
40
-948.34286135149932
40
-877.51064007726052
40
-877.51064007726052
40
-877.51064007726052
40
-859.45322025073096
40
-859.45322025073096
40
-859.45322025073096
40
-852.30954220456147
40
-852.30954220456147
40
-852.30954220456147
40
-833.42252511631284
40
-833.42252511631284
40
-833.42252511631284
40
-815.60078427408098
40
-815.60078427408098
40
-815.60078427408098
40
-812.23695644315239
40
-812.23695644315239
40
-812.23695644315239
40
-783.97856278693837
40
-783.97856278693837
40
-783.97856278693837
40
-771.29998455408293
40
-771.29998455408293
40
-771.29998455408293
40
-766.89108397062796
40
-766.89108397062796
40
-766.89108397062796
40
-765.76784050171204
40
-765.76784050171204
40
-765.76784050171204
40
-756.19461255765816
40
-756.19461255765816
40
-756.19461255765816
40
-754.79649229787731
40
-754.79649229787731
40
-754.79649229787731
40
-742.31645176429993
40
-742.31645176429993
40
-742.31645176429993
40
-720.31735330716026
40
-720.31735330716026
40
-720.31735330716026
40
-701.11086964652668
40
-701.11086964652668
40
-701.11086964652668
40
-692.598122916124
40
-692.598122916124
40
-692.598122916124
40
-689.21222217168759
40
-689.21222217168759
40
-689.21222217168759
40
-689.00059737515755
40
-689.00059737515755
40
-689.00059737515755
40
-686.06992634032679
40
-686.06992634032679
40
-686.06992634032679
40
-645.36832220856979
40
-645.36832220856979
40
-645.36832220856979
40
-634.27576016666285
40
-634.27576016666285
40
-634.27576016666285
40
-629.98210986426943
40
-629.98210986426943
40
-629.98210986426943
40
-548.93943390751815
40
-548.93943390751815
40
-548.93943390751815
40
-420.76021299036307
40
-420.76021299036307
40
-420.76021299036307
40
-314.2374076872232
40
-314.2374076872232
40
-314.2374076872232
40
-252.49928446311748
40
-252.49928446311748
40
-252.49928446311748
40
-221.59648840756532
40
-221.59648840756532
40
-221.59648840756532
40
-201.61248651183644
40
-201.61248651183644
40
-201.61248651183644
40
-188.14519124986126
40
-188.14519124986126
40
-188.14519124986126
40
-175.25923557705701
40
-175.25923557705701
40
-175.25923557705701
40
-164.94337815141947
40
-164.94337815141947
40
-164.94337815141947
40
-127.69301934269157
40
-127.69301934269157
40
-127.69301934269157
40
-63.389605232277795
40
-63.389605232277795
40
-63.389605232277795
40
-44.905137614242605
40
-44.905137614242605
40
-44.905137614242605
40
-32.792945686036575
40
-32.792945686036575
40
-32.792945686036575
40
-24.292284256857567
40
-24.292284256857567
40
-24.292284256857567
40
-16.081425618195698
40
-16.081425618195698
40
-16.081425618195698
40
-9.7314815398345598
40
-9.7314815398345598
40
-9.7314815398345598
40
0
40
0
40
0
40
0
10
7.866508959727863
20
-39.117082638653464
30
0
10
13.093324867588754
20
-38.453592724578208
30
0
10
18.414855134364597
20
-37.106891771718196
30
0
10
23.269172277689066
20
-35.113944073905401
30
0
10
24.536121879447954
20
-34.59379588055085
30
0
10
25.408225762199738
20
-34.213132996777979
30
0
10
26.321594462003507
20
-33.562829646023928
30
0
10
26.683273161130895
20
-33.305320416739519
30
0
10
27.045125755276157
20
-33.011841654218166
30
0
10
27.461907383409695
20
-32.62153419121168
30
0
10
28.526695382692324
20
-31.624382026657432
30
0
10
29.433621970115986
20
-30.363668625128245
30
0
10
30.055353579040172
20
-29.008104189715421
30
0
10
30.663605134920378
20
-27.681930379182415
30
0
10
30.864856626916183
20
-26.807496781441472
30
0
10
31.072106335728758
20
-25.271996814027919
30
0
10
31.111183127342265
20
-24.982479339706998
30
0
10
31.148890151005553
20
-24.675205247793379
30
0
10
31.188268943130865
20
-24.338528899352685
30
0
10
31.51496673163081
20
-21.545365053044371
30
0
10
31.658456210212002
20
-18.6786321095489
30
0
10
31.60025328107189
20
-15.765740960287129
30
0
10
31.574139685649101
20
-14.458829742822509
30
0
10
31.507003800611987
20
-13.127369168656365
30
0
10
31.394643596486226
20
-11.77859127776917
30
0
10
31.355528433590031
20
-11.309050773430343
30
0
10
31.280855182775294
20
-10.482632070196754
30
0
10
31.213316906825639
20
-9.9113228991852651
30
0
10
31.196112271167749
20
-9.7657881487488112
30
0
10
31.179497521684176
20
-9.6381130314662027
30
0
10
31.165822727132309
20
-9.5451597301232045
30
0
10
31.050927850948788
20
-8.7641711742698654
30
0
10
30.771887521029967
20
-7.9668649770769377
30
0
10
30.371272118795829
20
-7.2925867827417328
30
0
10
30.310408357022883
20
-7.1901466190339196
30
0
10
30.274693555395409
20
-7.1350081637433878
30
0
10
30.206744127993698
20
-7.030954292793286
30
0
10
29.596586869709093
20
-6.0965943277338042
30
0
10
28.956066930386363
20
-5.1719027641180944
30
0
10
28.285915992553665
20
-4.2589548280964262
30
0
10
27.104612849814686
20
-2.6496632415364223
30
0
10
25.831288320443718
20
-1.0769501158505126
30
0
10
24.470328483888117
20
0.44739617854735692
30
0
10
23.282111005178365
20
1.7782619851343029
30
0
10
22.016264389013646
20
3.0844855896858867
30
0
10
20.672203659470249
20
4.3555720357357277
30
0
10
20.076481173082993
20
4.9189504318229211
30
0
10
19.46274303401767
20
5.47795437041556
30
0
10
18.829739113001793
20
6.0319805041411438
30
0
10
18.577965722861162
20
6.2523409684029421
30
0
10
18.323115678331256
20
6.471936332409256
30
0
10
18.06518614470059
20
6.6906558648510774
30
0
10
18.049078521510282
20
6.7043148350486437
30
0
10
18.033519582650229
20
6.7174946179167359
30
0
10
18.018463863562914
20
6.7302366799496172
30
0
10
17.809890570901356
20
6.9067578954480533
30
0
10
17.669814329525448
20
7.0233059759114136
30
0
10
17.613940063170244
20
7.0697676335781621
30
0
10
17.016584043365729
20
7.5664927399250068
30
0
10
16.328044520991043
20
7.9473271639262304
30
0
10
15.578594786538265
20
8.1820106170088494
30
0
10
15.37491365440977
20
8.2457915341514685
30
0
10
15.229350428435055
20
8.2804161214778738
30
0
10
14.973625942909559
20
8.3384364944578575
30
0
10
14.873993144268166
20
8.3610418078533897
30
0
10
14.774256327456502
20
8.3834110668139648
30
0
10
14.674408701057152
20
8.4055457685662454
30
0
10
12.789784698986224
20
8.8233382760634598
30
0
10
10.866695866713927
20
9.1573310519078124
30
0
10
8.9168198663874954
20
9.4046156329772739
30
0
10
5.8328453987870503
20
9.7957273416817365
30
0
10
2.6818580457409888
20
9.9699175216757734
30
0
10
-0.48984575256221929
20
9.9159664565641581
30
0
10
-3.1257474269508458
20
9.8711294503661069
30
0
10
-5.8099263865485762
20
9.6684155843347774
30
0
10
-8.5138626878461494
20
9.2887261428663219
30
0
10
-10.080998499061939
20
9.0686673639001967
30
0
10
-11.668131278526044
20
8.7872939907495162
30
0
10
-13.2687586661628
20
8.4371535836287563
30
0
10
-14.069889615492549
20
8.2619046038087074
30
0
10
-14.890757902764049
20
8.0655098177922486
30
0
10
-15.706980954325974
20
7.8519232992527241
30
0
10
-16.24199823027546
20
7.7119217676739478
30
0
10
-16.593762886179903
20
7.6184141365960336
30
0
10
-17.118189022970032
20
7.3609379059553417
30
0
10
-17.46987255111819
20
7.188272695635618
30
0
10
-17.773818644001626
20
7.00395983085797
30
0
10
-18.114269876424171
20
6.7446755896161736
30
0
10
-18.400856551983832
20
6.5264140542010685
30
0
10
-18.984561697853589
20
6.0066294213746243
30
0
10
-19.515066497296402
20
5.5056852011745869
30
0
10
-19.940451935096167
20
5.1040029229994142
30
0
10
-20.350760001495949
20
4.7032081877561733
30
0
10
-20.669744275341799
20
4.3899195254799075
30
0
10
-21.796668867232377
20
3.283116692779136
30
0
10
-22.891236093517513
20
2.127101094313022
30
0
10
-23.947257376840867
20
0.92428468562582256
30
0
10
-25.770215642443937
20
-1.1520788771603776
30
0
10
-27.478335152159616
20
-3.367842278673272
30
0
10
-29.039478320057132
20
-5.7113731583876328
30
0
10
-29.488194136699548
20
-6.3849688888381015
30
0
10
-29.9359347566743
20
-7.0864517187671172
30
0
10
-30.369299998997281
20
-7.7981466248064644
30
0
10
-30.656818492715932
20
-8.2703244263182754
30
0
10
-30.845566897109546
20
-8.5840248730589934
30
0
10
-31.046999600312404
20
-9.1293971667266458
30
0
10
-31.187722244916415
20
-9.5103990112056707
30
0
10
-31.284651778481969
20
-9.8677130372466646
30
0
10
-31.354837764105746
20
-10.304803129456332
30
0
10
-31.414743215777413
20
-10.677870190669211
30
0
10
-31.479708034048102
20
-11.478773057552168
30
0
10
-31.518098356000888
20
-12.224877892714407
30
0
10
-31.547834725298884
20
-12.802795653879222
30
0
10
-31.567374453750666
20
-13.367704187246368
30
0
10
-31.581426804675377
20
-13.813326467161959
30
0
10
-31.602506634570567
20
-14.481801223337312
30
0
10
-31.612894094485103
20
-15.145707701432102
30
0
10
-31.612894094485103
20
-15.8097529899075
30
0
0
SPLINE
5
105
100
AcDbEntity
8
0
100
AcDbSpline
70
0
71
3
72
26
73
22
74
0
42
0.000000001
43
0.0000000001
44
0.0000000001
40
-3.7814493991234999
40
-3.7814493991234999
40
-3.7814493991234999
40
-3.7814493991234999
40
-3.0037167870320221
40
-3.0037167870320221
40
-3.0037167870320221
40
-2.4461926338609801
40
-2.4461926338609801
40
-2.4461926338609801
40
-2.3145019021538991
40
-2.3145019021538991
40
-2.3145019021538991
40
-1.8449550288876944
40
-1.8449550288876944
40
-1.8449550288876944
40
-1.34330647501713
40
-1.34330647501713
40
-1.34330647501713
40
-1.3101641163044191
40
-1.3101641163044191
40
-1.3101641163044191
40
-0.00017558309333223437
40
-0.00017558309333223437
40
-0.00017558309333223437
40
-0.00017558309333223437
10
-31.612894094485103
20
-15.8097529899075
30
0
10
-31.612894094485103
20
-18.402631583997724
30
0
10
-31.449739566566922
20
-21.034080341791856
30
0
10
-31.132538081495269
20
-23.583334406357945
30
0
10
-30.901508848605349
20
-25.440047690172484
30
0
10
-30.683444032913499
20
-26.852372620681912
30
0
10
-29.95612525944
20
-28.520817353925644
30
0
10
-29.784334545753644
20
-28.914899456469527
30
0
10
-29.5869215192319
20
-29.316568396519074
30
0
10
-29.344782767710328
20
-29.752964601856135
30
0
10
-28.499784963182336
20
-31.275867619638493
30
0
10
-27.337979416419351
20
-32.671909663436878
30
0
10
-25.954054330312538
20
-33.77694166897026
30
0
10
-24.445742765760777
20
-34.981293385604452
30
0
10
-23.31886732681895
20
-35.457775081256891
30
0
10
-21.732495307603941
20
-36.027120168984716
30
0
10
-21.627773092303126
20
-36.064704719225965
30
0
10
-21.522372047503136
20
-36.102125151968465
30
0
10
-21.413899560591155
20
-36.140377457305114
30
0
10
-17.175509479660423
20
-37.635025511640052
30
0
10
-12.671043234401967
20
-38.661113845639989
30
0
10
-8.0559020321758386
20
-39.198726921657745
30
0
0
ENDSEC
0
SECTION
2
OBJECTS
0
DICTIONARY
5
C
100
AcDbDictionary
3
ACAD_GROUP
350
D
3
ACAD_MLINESTYLE
350
17
0
DICTIONARY
5
D
100
AcDbDictionary
0
DICTIONARY
5
1A
330
C
100
AcDbDictionary
0
DICTIONARY
5
17
100
AcDbDictionary
0
ENDSEC
0
EOF
