0
SECTION
2
HEADER
9
$INSUNITS
70
4
9
$ACADVER
1
AC1014
9
$HANDSEED
5
FFFF
0
ENDSEC
0
SECTION
2
TABLES
0
TABLE
2
VPORT
5
8
100
AcDbSymbolTable
0
ENDTAB
0
TABLE
2
LTYPE
5
5
100
AcDbSymbolTable
0
LTYPE
5
14
100
AcDbSymbolTableRecord
100
AcDbLinetypeTableRecord
2
BYBLOCK
70
0
0
LTYPE
5
15
100
AcDbSymbolTableRecord
100
AcDbLinetypeTableRecord
2
BYLAYER
70
0
0
ENDTAB
0
TABLE
2
LAYER
5
2
100
AcDbSymbolTable
70
2
0
LAYER
5
50
100
AcDbSymbolTableRecord
100
AcDbLayerTableRecord
2
0
70
0
6
CONTINUOUS
0
ENDTAB
0
TABLE
2
STYLE
5
3
100
AcDbSymbolTable
70
1
0
STYLE
5
11
100
AcDbSymbolTableRecord
100
AcDbTextStyleTableRecord
2
STANDARD
70
0
0
ENDTAB
0
TABLE
2
VIEW
5
6
100
AcDbSymbolTable
70
0
0
ENDTAB
0
TABLE
2
UCS
5
7
100
AcDbSymbolTable
70
0
0
ENDTAB
0
TABLE
2
APPID
5
9
100
AcDbSymbolTable
70
2
0
APPID
5
12
100
AcDbSymbolTableRecord
100
AcDbRegAppTableRecord
2
ACAD
70
0
0
ENDTAB
0
TABLE
2
DIMSTYLE
5
A
100
AcDbSymbolTable
70
1
0
ENDTAB
0
TABLE
2
BLOCK_RECORD
5
1
100
AcDbSymbolTable
70
1
0
BLOCK_RECORD
5
1F
100
AcDbSymbolTableRecord
100
AcDbBlockTableRecord
2
*MODEL_SPACE
0
BLOCK_RECORD
5
1B
100
AcDbSymbolTableRecord
100
AcDbBlockTableRecord
2
*PAPER_SPACE
0
ENDTAB
0
ENDSEC
0
SECTION
2
BLOCKS
0
BLOCK
5
20
100
AcDbEntity
100
AcDbBlockBegin
2
*MODEL_SPACE
0
ENDBLK
5
21
100
AcDbEntity
100
AcDbBlockEnd
0
BLOCK
5
1C
100
AcDbEntity
100
AcDbBlockBegin
2
*PAPER_SPACE
0
ENDBLK
5
1D
100
AcDbEntity
100
AcDbBlockEnd
0
ENDSEC
0
SECTION
2
ENTITIES
0
SPLINE
5
100
100
AcDbEntity
8
0
100
AcDbSpline
70
0
71
3
72
10
73
6
74
0
42
0.000000001
43
0.0000000001
44
0.0000000001
40
-1.5941817224134751
40
-1.5941817224134751
40
-1.5941817224134751
40
-1.5941817224134751
40
-0.79700843314636804
40
-0.79700843314636804
40
0
40
0
40
0
40
0
10
8.1150497206680789
20
24.559844978693977
30
0
10
5.4703558341705358
20
24.817798096427413
30
0
10
2.8081532523263726
20
24.93939163593484
30
0
10
-2.5057175087979728
20
24.912143783938173
30
0
10
-5.1660098896066176
20
24.763314101813574
30
0
10
-7.8073613392238279
20
24.478200688299975
30
0
0
SPLINE
5
101
100
AcDbEntity
8
0
100
AcDbSpline
70
0
71
3
72
71
73
67
74
0
42
0.000000001
43
0.0000000001
44
0.0000000001
40
-948.33177640337794
40
-948.33177640337794
40
-948.33177640337794
40
-948.33177640337794
40
-739.04308654866986
40
-739.04308654866986
40
-739.04308654866986
40
-665.2246173684573
40
-665.2246173684573
40
-665.2246173684573
40
-592.24963433653193
40
-592.24963433653193
40
-592.24963433653193
40
-493.45534570619782
40
-493.45534570619782
40
-493.45534570619782
40
-324.98278128955127
40
-324.98278128955127
40
-324.98278128955127
40
-285.56481615654803
40
-285.56481615654803
40
-285.56481615654803
40
-283.11322614419697
40
-283.11322614419697
40
-283.11322614419697
40
-241.5150049183051
40
-241.5150049183051
40
-241.5150049183051
40
-181.50159572169221
40
-181.50159572169221
40
-181.50159572169221
40
-173.53485072154191
40
-173.53485072154191
40
-173.53485072154191
40
-165.97202356067999
40
-165.97202356067999
40
-165.97202356067999
40
-153.33452437298851
40
-153.33452437298851
40
-153.33452437298851
40
-133.05990945112299
40
-133.05990945112299
40
-133.05990945112299
40
-70.635515603729971
40
-70.635515603729971
40
-70.635515603729971
40
-36.607837904623715
40
-36.607837904623715
40
-36.607837904623715
40
-21.380644123907096
40
-21.380644123907096
40
-21.380644123907096
40
-16.190404694784249
40
-16.190404694784249
40
-16.190404694784249
40
-13.417982769026995
40
-13.417982769026995
40
-13.417982769026995
40
-4.4302144697159731
40
-4.4302144697159731
40
-4.4302144697159731
40
-3.0674582880333108
40
-3.0674582880333108
40
-3.0674582880333108
40
-0.54372729770929984
40
-0.54372729770929984
40
-0.54372729770929984
40
0
40
0
40
0
40
0
10
-7.8073613392238279
20
24.478200688299975
30
0
10
-14.45261572985264
20
23.634664049251857
30
0
10
-19.715790922644906
20
21.932429046624627
30
0
10
-23.592578847001796
20
20.316990464132857
30
0
10
-24.959708049242735
20
19.747314406622532
30
0
10
-25.922628049066553
20
19.28380508995037
30
0
10
-27.060387794669197
20
18.292277649311067
30
0
10
-28.18514265659563
20
17.31208361985734
30
0
10
-29.10531057648933
20
16.139095869660007
30
0
10
-29.785287139321895
20
14.805070077739488
30
0
10
-30.71012886586713
20
12.990650604932652
30
0
10
-30.88874876488099
20
11.811548651704914
30
0
10
-31.150356082957799
20
9.5157253062580551
30
0
10
-31.595603327964888
20
5.6083077802589099
30
0
10
-31.67204178322531
20
1.638201308153846
30
0
10
-31.380158040497999
20
-2.2933095757929278
30
0
10
-31.311501261100862
20
-3.2180780227591788
30
0
10
-31.200924723540702
20
-4.8424781187375396
30
0
10
-30.986496555679185
20
-5.7002614397340645
30
0
10
-30.972710464933201
20
-5.7554103449436376
30
0
10
-30.959535237379882
20
-5.8068472136521807
30
0
10
-30.945818457906398
20
-5.8586124096617738
30
0
10
-30.713074147409142
20
-6.7369566942118153
30
0
10
-30.45492323619143
20
-7.2254166049048223
30
0
10
-29.031077026630999
20
-9.258338074407078
30
0
10
-26.980236814500476
20
-12.186461259175656
30
0
10
-24.664906495460251
20
-14.950603319309504
30
0
10
-22.144485227463392
20
-17.497401558444917
30
0
10
-21.809900777023277
20
-17.835487536389472
30
0
10
-21.471714489217774
20
-18.169748696303866
30
0
10
-21.130065237026901
20
-18.50007602406987
30
0
10
-20.806835680005427
20
-18.812594067476017
30
0
10
-20.267273852391845
20
-19.320453586811098
30
0
10
-19.674035355510426
20
-19.861783224449681
30
0
10
-18.682732650452859
20
-20.766346122744373
30
0
10
-17.507241030492633
20
-21.79159921996267
30
0
10
-16.966507629702999
20
-22.140510942185617
30
0
10
-16.055214584012202
20
-22.72852867062165
30
0
10
-15.584334927162873
20
-22.866767746062095
30
0
10
-13.283308576381705
20
-23.324468209104005
30
0
10
-6.2098081060131749
20
-24.731468367757479
30
0
10
1.2056324997392631
20
-24.939391635934847
30
0
10
8.3757457084150531
20
-23.95499936243645
30
0
10
12.284377907246586
20
-23.418379196966626
30
0
10
15.066694821580981
20
-22.679658605881173
30
0
10
15.993743224115203
20
-22.430677753218777
30
0
10
16.404913516279933
20
-22.320248211834791
30
0
10
17.107160557458986
20
-22.117014715947612
30
0
10
17.898962682094904
20
-21.580778627351698
30
0
10
18.168991675165479
20
-21.397905550169387
30
0
10
18.609577920905362
20
-21.069690832380566
30
0
10
19.861129969549005
20
-19.871720247634773
30
0
10
20.529657175467591
20
-19.231814037852558
30
0
10
21.491614071236327
20
-18.283913512414419
30
0
10
22.340982214858705
20
-17.38821439367106
30
0
10
25.096989583244902
20
-14.481873498207541
30
0
10
27.583280317658385
20
-11.319785374488873
30
0
10
29.735861584046106
20
-7.9508963501552916
30
0
10
30.063967944693072
20
-7.4373947535105343
30
0
10
30.64379559806342
20
-6.5379460623189392
30
0
10
30.897038292027801
20
-6.0077216123021184
30
0
10
31.378318175383754
20
-5.0000464945652325
30
0
10
31.478036532799095
20
-4.2985427014847133
30
0
10
31.574968203081788
20
-2.4577606865281276
30
0
10
31.595932724157549
20
-2.0596337045448743
30
0
10
31.672041783225303
20
-0.63591785540504153
30
0
10
31.672041783225303
20
1.1708710469195704
30
0
0
SPLINE
5
102
100
AcDbEntity
8
0
100
AcDbSpline
70
0
71
3
72
20
73
16
74
0
42
0.000000001
43
0.0000000001
44
0.0000000001
40
-3.7814493991234999
40
-3.7814493991234999
40
-3.7814493991234999
40
-3.7814493991234999
40
-3.02424991653977
40
-3.02424991653977
40
-3.02424991653977
40
-2.6238176120892489
40
-2.6238176120892489
40
-2.6238176120892489
40
-2.1537862495533484
40
-2.1537862495533484
40
-2.1537862495533484
40
-1.3148603650265527
40
-1.3148603650265527
40
-1.3148603650265527
40
-0.00018740549194116399
40
-0.00018740549194116399
40
-0.00018740549194116399
40
-0.00018740549194116399
10
31.672041783225303
20
1.1708710469195704
30
0
10
31.672041783225303
20
5.7540465792011641
30
0
10
31.173657136050025
20
9.4475526767930074
30
0
10
30.902017034908404
20
10.923325310291174
30
0
10
30.758376994908708
20
11.703696246744473
30
0
10
30.406467789916437
20
13.34086022166224
30
0
10
29.351363226927688
20
15.207957589266972
30
0
10
28.112865510804479
20
17.399584757486188
30
0
10
26.59345048405784
20
18.689321193619826
30
0
10
25.841856781459192
20
19.273013426200972
30
0
10
24.496547799602681
20
20.317788549271107
30
0
10
23.535083233784135
20
20.802229551591886
30
0
10
20.898257897147701
20
21.700766790089677
30
0
10
16.769447646450566
20
23.107719958127319
30
0
10
12.454518327113849
20
24.054344699650976
30
0
10
8.1150497206680914
20
24.559844978694073
30
0
0
CIRCLE
5
103
100
AcDbEntity
8
0
100
AcDbCircle
10
-13.9408523112598
20
0.21827586805597043
30
0
40
10
210
0
220
-0
230
1
0
CIRCLE
5
104
100
AcDbEntity
8
0
100
AcDbCircle
10
14.059147688740204
20
0.21827586805597043
30
0
40
10
210
0
220
-0
230
1
0
ENDSEC
0
SECTION
2
OBJECTS
0
DICTIONARY
5
C
100
AcDbDictionary
3
ACAD_GROUP
350
D
3
ACAD_MLINESTYLE
350
17
0
DICTIONARY
5
D
100
AcDbDictionary
0
DICTIONARY
5
1A
330
C
100
AcDbDictionary
0
DICTIONARY
5
17
100
AcDbDictionary
0
ENDSEC
0
EOF
