0
SECTION
2
HEADER
9
$INSUNITS
70
4
9
$ACADVER
1
AC1014
9
$HANDSEED
5
FFFF
0
ENDSEC
0
SECTION
2
TABLES
0
TABLE
2
VPORT
5
8
100
AcDbSymbolTable
0
ENDTAB
0
TABLE
2
LTYPE
5
5
100
AcDbSymbolTable
0
LTYPE
5
14
100
AcDbSymbolTableRecord
100
AcDbLinetypeTableRecord
2
BYBLOCK
70
0
0
LTYPE
5
15
100
AcDbSymbolTableRecord
100
AcDbLinetypeTableRecord
2
BYLAYER
70
0
0
ENDTAB
0
TABLE
2
LAYER
5
2
100
AcDbSymbolTable
70
2
0
LAYER
5
50
100
AcDbSymbolTableRecord
100
AcDbLayerTableRecord
2
0
70
0
6
CONTINUOUS
0
ENDTAB
0
TABLE
2
STYLE
5
3
100
AcDbSymbolTable
70
1
0
STYLE
5
11
100
AcDbSymbolTableRecord
100
AcDbTextStyleTableRecord
2
STANDARD
70
0
0
ENDTAB
0
TABLE
2
VIEW
5
6
100
AcDbSymbolTable
70
0
0
ENDTAB
0
TABLE
2
UCS
5
7
100
AcDbSymbolTable
70
0
0
ENDTAB
0
TABLE
2
APPID
5
9
100
AcDbSymbolTable
70
2
0
APPID
5
12
100
AcDbSymbolTableRecord
100
AcDbRegAppTableRecord
2
ACAD
70
0
0
ENDTAB
0
TABLE
2
DIMSTYLE
5
A
100
AcDbSymbolTable
70
1
0
ENDTAB
0
TABLE
2
BLOCK_RECORD
5
1
100
AcDbSymbolTable
70
1
0
BLOCK_RECORD
5
1F
100
AcDbSymbolTableRecord
100
AcDbBlockTableRecord
2
*MODEL_SPACE
0
BLOCK_RECORD
5
1B
100
AcDbSymbolTableRecord
100
AcDbBlockTableRecord
2
*PAPER_SPACE
0
ENDTAB
0
ENDSEC
0
SECTION
2
BLOCKS
0
BLOCK
5
20
100
AcDbEntity
100
AcDbBlockBegin
2
*MODEL_SPACE
0
ENDBLK
5
21
100
AcDbEntity
100
AcDbBlockEnd
0
BLOCK
5
1C
100
AcDbEntity
100
AcDbBlockBegin
2
*PAPER_SPACE
0
ENDBLK
5
1D
100
AcDbEntity
100
AcDbBlockEnd
0
ENDSEC
0
SECTION
2
ENTITIES
0
SPLINE
5
100
100
AcDbEntity
8
0
100
AcDbSpline
70
2
71
3
72
167
73
163
74
0
42
0.000000001
43
0.0000000001
44
0.0000000001
40
-36.905430089002799
40
-36.905430089002799
40
-36.905430089002799
40
-36.905430089002799
40
-36.479661319139787
40
-36.479661319139787
40
-36.479661319139787
40
-35.960413153146121
40
-35.960413153146121
40
-35.960413153146121
40
-35.911980325476542
40
-35.911980325476542
40
-35.911980325476542
40
-35.665667204938458
40
-35.665667204938458
40
-35.665667204938458
40
-34.806984513238802
40
-34.806984513238802
40
-34.806984513238802
40
-34.012033320521716
40
-34.012033320521716
40
-34.012033320521716
40
-33.546664610791652
40
-33.546664610791652
40
-33.546664610791652
40
-30.828521047736611
40
-30.828521047736611
40
-30.828521047736611
40
-30.308833261329323
40
-30.308833261329323
40
-30.308833261329323
40
-30.228805291490332
40
-30.228805291490332
40
-30.228805291490332
40
-29.820562366548675
40
-29.820562366548675
40
-29.820562366548675
40
-29.270962736841437
40
-29.270962736841437
40
-29.270962736841437
40
-28.698054352649624
40
-28.698054352649624
40
-28.698054352649624
40
-28.272375803683403
40
-28.272375803683403
40
-28.272375803683403
40
-27.524044997807266
40
-27.524044997807266
40
-27.524044997807266
40
-26.783977082303203
40
-26.783977082303203
40
-26.783977082303203
40
-25.768134878581229
40
-25.768134878581229
40
-25.768134878581229
40
-25.678850768713701
40
-25.678850768713701
40
-25.678850768713701
40
-25.656234240610839
40
-25.656234240610839
40
-25.656234240610839
40
-25.547100605366179
40
-25.547100605366179
40
-25.547100605366179
40
-25.53594010469422
40
-25.53594010469422
40
-25.53594010469422
40
-25.373959875405305
40
-25.373959875405305
40
-25.373959875405305
40
-25.150475837730589
40
-25.150475837730589
40
-25.150475837730589
40
-24.282119615219671
40
-24.282119615219671
40
-24.282119615219671
40
-23.72803937009833
40
-23.72803937009833
40
-23.72803937009833
40
-23.457451120008585
40
-23.457451120008585
40
-23.457451120008585
40
-23.415397754289781
40
-23.415397754289781
40
-23.415397754289781
40
-23.165518272771187
40
-23.165518272771187
40
-23.165518272771187
40
-22.998248051362651
40
-22.998248051362651
40
-22.998248051362651
40
-22.894550171975091
40
-22.894550171975091
40
-22.894550171975091
40
-22.790852292587527
40
-22.790852292587527
40
-22.790852292587527
40
-22.602588561680381
40
-22.602588561680381
40
-22.602588561680381
40
-22.313351678194536
40
-22.313351678194536
40
-22.313351678194536
40
-22.223442774283715
40
-22.223442774283715
40
-22.223442774283715
40
-22.178851903951351
40
-22.178851903951351
40
-22.178851903951351
40
-22.175816031024326
40
-22.175816031024326
40
-22.175816031024326
40
-22.098835042423683
40
-22.098835042423683
40
-22.098835042423683
40
-22.034018362212191
40
-22.034018362212191
40
-22.034018362212191
40
-21.979944576832189
40
-21.979944576832189
40
-21.979944576832189
40
-21.916377262352459
40
-21.916377262352459
40
-21.916377262352459
40
-21.908032148087425
40
-21.908032148087425
40
-21.908032148087425
40
-21.876007918066954
40
-21.876007918066954
40
-21.876007918066954
40
-21.723259795117048
40
-21.723259795117048
40
-21.723259795117048
40
-21.287810076545782
40
-21.287810076545782
40
-21.287810076545782
40
-20.05438090658253
40
-20.05438090658253
40
-20.05438090658253
40
-19.865410152517608
40
-19.865410152517608
40
-19.865410152517608
40
-19.801317958038709
40
-19.801317958038709
40
-19.801317958038709
40
-19.55024948039171
40
-19.55024948039171
40
-19.55024948039171
40
-19.34018097909771
40
-19.34018097909771
40
-19.34018097909771
40
-19.164295817134587
40
-19.164295817134587
40
-19.164295817134587
40
-19.067725087829821
40
-19.067725087829821
40
-19.067725087829821
40
-19.049977530756927
40
-19.049977530756927
40
-19.049977530756927
40
-18.89225483890047
40
-18.89225483890047
40
-18.89225483890047
40
-17.860688214542002
40
-17.860688214542002
40
-17.860688214542002
40
-17.860688214542002
10
43.08317663295837
20
2.2612970745166661
30
0
10
43.08317663295837
20
0.84206784163988413
30
0
10
43.08317663295837
20
-0.5771613912368756
30
0
10
43.08317663295837
20
-1.9971720325075659
30
0
10
43.083176632958384
20
-3.7306882436414202
30
0
10
43.083424877376615
20
-4.2868736373607863
30
0
10
43.059109660885859
20
-4.591136094579733
30
0
10
43.056820801671172
20
-4.6197771691582172
30
0
10
43.05439385298655
20
-4.6464926061789003
30
0
10
43.051322356816968
20
-4.6761813684546327
30
0
10
43.033837237068312
20
-4.8451907159893715
30
0
10
43.009957606739334
20
-5.0118278293532654
30
0
10
42.979784518002944
20
-5.174338937654003
30
0
10
42.874596824402005
20
-5.7408758545747363
30
0
10
42.705918138737566
20
-6.2699059205208449
30
0
10
42.370074845056287
20
-6.8957621259151667
30
0
10
42.033134652936042
20
-7.5236624414869482
30
0
10
41.914658263590425
20
-7.6781744296994709
30
0
10
41.347763687184838
20
-8.2709841559193205
30
0
10
41.017239341661963
20
-8.6166181678387002
30
0
10
40.547235247943341
20
-9.07996051183029
30
0
10
39.877329901406647
20
-9.7498658583670341
30
0
10
35.982133965925776
20
-13.645061793847916
30
0
10
31.282244451573312
20
-18.344951308200375
30
0
10
25.561551537927162
20
-24.065644221846455
30
0
10
24.466281500924744
20
-25.160914258848948
30
0
10
24.068238691595983
20
-25.559546621130671
30
0
10
23.787238095726359
20
-25.792185768691329
30
0
10
23.743680424800129
20
-25.82824697134706
30
0
10
23.702323252945568
20
-25.861161494609419
30
0
10
23.655919802806164
20
-25.896632761807936
30
0
10
23.406344606963195
20
-26.087410568873935
30
0
10
23.144768419022416
20
-26.258315511368309
30
0
10
22.863041299258285
20
-26.410720061739525
30
0
10
22.483764375541895
20
-26.615895655319459
30
0
10
22.068375893718375
20
-26.789715624061134
30
0
10
21.573380119950563
20
-26.923114802810527
30
0
10
20.980582947140675
20
-27.082871027426016
30
0
10
20.955065898834565
20
-27.095821131269204
30
0
10
20.265684414728049
20
-27.117354472834144
30
0
10
19.756622663568855
20
-27.133255393903319
30
0
10
18.942662490589957
20
-27.129805564442236
30
0
10
17.564641442876095
20
-27.129805564442236
30
0
10
15.146350761547637
20
-27.129805564442236
30
0
10
12.17612320069348
20
-27.129805564442236
30
0
10
8.8987747347127506
20
-27.129805564442236
30
0
10
5.6576139692420586
20
-27.129805564442236
30
0
10
2.0707350282353425
20
-27.129805564442236
30
0
10
-1.6394722046578711
20
-27.129805564442236
30
0
10
-6.7322279001407317
20
-27.129805564442236
30
0
10
-12.150106635677286
20
-27.129805564442236
30
0
10
-17.96401076525288
20
-27.129805564442236
30
0
10
-18.475564747960764
20
-27.129805564442229
30
0
10
-19.025361370616075
20
-27.130143373036873
30
0
10
-19.585006901319272
20
-27.13000400011002
30
0
10
-19.726770524113626
20
-27.129968695600386
30
0
10
-19.866809608661768
20
-27.129906421398601
30
0
10
-20.011801580229442
20
-27.129804069497936
30
0
10
-20.598892202425549
20
-27.129389633854444
30
0
10
-21.35951898995539
20
-27.025896263195463
30
0
10
-22.072614382788029
20
-26.763423819409475
30
0
10
-22.145538752924129
20
-26.736582196488392
30
0
10
-22.217784868871032
20
-26.708418884286324
30
0
10
-22.289386124356803
20
-26.678976435560507
30
0
10
-23.307707081244054
20
-26.26024268073791
30
0
10
-24.024145862516569
20
-25.598507171874616
30
0
10
-24.427912269724938
20
-25.194740764666133
30
0
10
-25.020380629830647
20
-24.602272404560502
30
0
10
-25.580845340009372
20
-24.041807694381806
30
0
10
-26.197906103377694
20
-23.42474693101348
30
0
10
-28.595520533085303
20
-21.027132501305864
30
0
10
-31.349235458064449
20
-18.273417576326732
30
0
10
-34.274332906805697
20
-15.348320127585463
30
0
10
-36.140777425065579
20
-13.481875609325574
30
0
10
-38.094739497388673
20
-11.527913537002487
30
0
10
-40.149745190462696
20
-9.4729078439284997
30
0
10
-41.155662592843171
20
-8.4669904415479689
30
0
10
-41.553796211832356
20
-8.071030292804565
30
0
10
-41.818717406655068
20
-7.7358960711882592
30
0
10
-41.860083999213266
20
-7.6835659403084557
30
0
10
-41.899174803433283
20
-7.6318846973621888
30
0
10
-41.94058345064434
20
-7.5746226540852435
30
0
10
-42.194585502458672
20
-7.2233753310493762
30
0
10
-42.414933929988976
20
-6.8447420113928628
30
0
10
-42.598342599496462
20
-6.4141322508313392
30
0
10
-42.721117020870793
20
-6.1258805322345768
30
0
10
-42.827344552113964
20
-5.8139505410626047
30
0
10
-42.911376501975063
20
-5.4655475575897636
30
0
10
-42.973399048679468
20
-5.2083972671334999
30
0
10
-43.003280067877363
20
-5.0947607909172827
30
0
10
-43.02327544594479
20
-4.9588409001047946
30
0
10
-43.043270824012218
20
-4.8229210092923029
30
0
10
-43.052650843685463
20
-4.6802975475542485
30
0
10
-43.06314597928791
20
-4.364550852049307
30
0
10
-43.082069225335637
20
-3.7952440194285098
30
0
10
-43.078633907575835
20
-2.7679883557665663
30
0
10
-43.078633907575835
20
-0.77876325592123319
30
0
10
-43.078633907575835
20
2.274667321261401
30
0
10
-43.078633907575835
20
5.9602604912070367
30
0
10
-43.078633907575835
20
10.073203735708937
30
0
10
-43.078633907575835
20
11.351706720888139
30
0
10
-43.078633907575814
20
12.676306500412814
30
0
10
-43.078633907575814
20
14.048631571449137
30
0
10
-43.078633907575835
20
14.735309147887982
30
0
10
-43.083424877376586
20
15.46371448478482
30
0
10
-43.079330775350144
20
16.221531510071827
30
0
10
-43.079052037271921
20
16.273125842578899
30
0
10
-43.078735452114636
20
16.324696831652489
30
0
10
-43.078373668301964
20
16.376810511805285
30
0
10
-43.069993713354577
20
17.583913418383069
30
0
10
-42.831319787458398
20
19.061591253569212
30
0
10
-42.241333709075278
20
20.471322411757555
30
0
10
-41.744707557021137
20
21.657976446782467
30
0
10
-41.005913012940702
20
22.848894809471531
30
0
10
-39.912479936380542
20
23.941495850879871
30
0
10
-39.000517985722034
20
24.85276385472417
30
0
10
-37.860769921014551
20
25.67459530952339
30
0
10
-36.440534714322681
20
26.267707356143376
30
0
10
-34.791569218965506
20
26.956340686135963
30
0
10
-33.186773105443109
20
27.082175307591317
30
0
10
-32.468340963610657
20
27.099018054670964
30
0
10
-32.373886522210697
20
27.101232421448852
30
0
10
-32.293477765010067
20
27.101836512368568
30
0
10
-32.223454062494937
20
27.101836512368568
30
0
10
-31.92789393045144
20
27.101836512368568
30
0
10
-31.636256047088022
20
27.101836512368568
30
0
10
-31.351230898473137
20
27.101836512368568
30
0
10
-29.99172728459671
20
27.101836512368568
30
0
10
-28.746134956090728
20
27.101836512368568
30
0
10
-27.344052624069931
20
27.101836512368568
30
0
10
-23.347038814005433
20
27.101836512368568
30
0
10
-18.87488512145725
20
27.101836512368568
30
0
10
-14.341289600479366
20
27.101836512368568
30
0
10
-1.4996945278356564
20
27.101836512368568
30
0
10
12.268790989078177
20
27.101836512368568
30
0
10
27.253661162138929
20
27.101836512368568
30
0
10
29.561851644142067
20
27.101836512368568
30
0
10
30.538783093781433
20
27.13325539390334
30
0
10
31.494668795478663
20
27.029156241129467
30
0
10
31.81920404554965
20
26.993813266004189
30
0
10
32.150263526373912
20
26.942590030722929
30
0
10
32.540342543447515
20
26.867506713667449
30
0
10
34.029840964905119
20
26.580804590925698
30
0
10
35.65227684321183
20
25.993833174231376
30
0
10
37.202866057103236
20
24.978877585368163
30
0
10
38.499917217007074
20
24.129878177922098
30
0
10
39.74834541854964
20
22.991752078727203
30
0
10
40.799287887263318
20
21.461521260057093
30
0
10
41.678996427738781
20
20.180616586245019
30
0
10
42.401555443213624
20
18.648520032272327
30
0
10
42.791080137655058
20
16.842126372094569
30
0
10
43.001154779111381
20
15.86791984319936
30
0
10
43.066242740967823
20
14.868832856696855
30
0
10
43.079835863430908
20
14.337694984277206
30
0
10
43.082333977698546
20
14.240083629654476
30
0
10
43.08317663295837
20
14.159646690572899
30
0
10
43.08317663295837
20
14.101833673704371
30
0
10
43.08317663295837
20
13.50329789088522
30
0
10
43.08317663295837
20
12.912484674820011
30
0
10
43.08317663295837
20
12.34643449736514
30
0
10
43.08317663295837
20
8.644250214928082
30
0
10
43.08317663295837
20
5.699852489044841
30
0
10
43.08317663295837
20
2.2612970745166661
30
0
0
CIRCLE
5
101
100
AcDbEntity
8
0
100
AcDbCircle
10
32.00227136269136
20
-10.871142337080544
30
0
40
1.6500000000000001
210
0
220
-0
230
1
0
CIRCLE
5
102
100
AcDbEntity
8
0
100
AcDbCircle
10
-31.99772863730864
20
-10.871142337080544
30
0
40
1.6500000000000001
210
0
220
-0
230
1
0
CIRCLE
5
103
100
AcDbEntity
8
0
100
AcDbCircle
10
32.00227136269136
20
13.101836512368767
30
0
40
1.6500000000000001
210
0
220
0
230
1
0
CIRCLE
5
104
100
AcDbEntity
8
0
100
AcDbCircle
10
6.2022713626913637
20
13.101836512368767
30
0
40
1.6500000000000001
210
0
220
-0
230
1
0
ENDSEC
0
SECTION
2
OBJECTS
0
DICTIONARY
5
C
100
AcDbDictionary
3
ACAD_GROUP
350
D
3
ACAD_MLINESTYLE
350
17
0
DICTIONARY
5
D
100
AcDbDictionary
0
DICTIONARY
5
1A
330
C
100
AcDbDictionary
0
DICTIONARY
5
17
100
AcDbDictionary
0
ENDSEC
0
EOF
